<svg width="16" height="16" viewBox="0 0 16 16" fill="none" xmlns="http://www.w3.org/2000/svg">
    <path fill-rule="evenodd" clip-rule="evenodd" d="M4.21052 1.94595C4.21052 0.871234 5.05884 0 6.10526 0H14.1053C15.1517 0 16 0.871234 16 1.94595V10.1622C16 11.2369 15.1517 12.1081 14.1053 12.1081H6.10526C5.05884 12.1081 4.21052 11.2369 4.21052 10.1622V1.94595ZM6.10526 1.2973C5.75645 1.2973 5.47368 1.58771 5.47368 1.94595V10.1622C5.47368 10.5204 5.75645 10.8108 6.10526 10.8108H14.1053C14.4541 10.8108 14.7368 10.5204 14.7368 10.1622V1.94595C14.7368 1.58771 14.4541 1.2973 14.1053 1.2973H6.10526Z" fill="#5C6F84"/>
    <path d="M3.17093 3.89189C3.16232 3.96272 3.1579 4.03489 3.1579 4.10811V5.18919H1.89474C1.54593 5.18919 1.26316 5.4796 1.26316 5.83784V14.054C1.26316 14.4123 1.54593 14.7027 1.89474 14.7027H9.89474C10.2435 14.7027 10.5263 14.4123 10.5263 14.054V13.1892H11.7895V14.054C11.7895 15.1288 10.9412 16 9.89474 16H1.89474C0.848299 16 0 15.1288 0 14.054V5.83784C0 4.76312 0.848299 3.89189 1.89474 3.89189H3.17093Z" fill="#5C6F84"/>
</svg>
