<svg width="20" height="26" viewBox="0 0 20 26" fill="none" xmlns="http://www.w3.org/2000/svg">
    <path d="M17.0707 2.99052C15.2596 1.14434 12.76 0 9.999 0C9.95236 0 9.90578 0.000326723 9.85929 0.000978044C9.81443 0.000326746 9.76949 0 9.72448 0C7.2309 0 4.96662 1.00282 3.29704 2.6352C3.17154 2.75107 3.04893 2.87015 2.92933 2.9923C1.12026 4.84052 0 7.39312 0 10.215C0 12.0576 0.484657 13.7948 1.32989 15.2966C2.11469 16.6893 3.20983 17.8753 4.52007 18.7568V22.286H15.4282V18.7857C16.7544 17.9078 17.8642 16.7218 18.6559 15.3253C19.5101 13.8202 20 12.0718 20 10.2147C20 7.39312 18.878 4.83848 17.0707 2.99052Z" fill="white"/>
    <path d="M17.0707 2.99052C15.2596 1.14434 12.76 0 9.999 0C9.95236 0 9.90578 0.000326723 9.85929 0.000978044C9.81443 0.000326746 9.76949 0 9.72448 0C7.2309 0 4.96662 1.00282 3.29704 2.6352C3.17154 2.75107 3.04893 2.87015 2.92933 2.9923C1.12026 4.84052 0 7.39312 0 10.215C0 12.0576 0.484657 13.7948 1.32989 15.2966C2.11469 16.6893 3.20983 17.8753 4.52007 18.7568V22.286H15.4282V18.7857C16.7544 17.9078 17.8642 16.7218 18.6559 15.3253C19.5101 13.8202 20 12.0718 20 10.2147C20 7.39312 18.878 4.83848 17.0707 2.99052Z" fill="url(#paint0_linear_735_375)"/>
    <path d="M6.33809 24.1429H13.6102V26H6.33809V24.1429Z" fill="white"/>
    <path d="M6.33809 24.1429H13.6102V26H6.33809V24.1429Z" fill="url(#paint1_linear_735_375)"/>
    <path d="M9.97398 5.99792C8.46854 5.99792 7.24707 7.24565 7.24707 8.78346C7.24707 9.99486 8.007 11.0287 9.06708 11.4097V17.1406H10.8851V11.4097C11.9432 11.0287 12.7031 9.99486 12.7031 8.78346C12.7029 7.24565 11.4814 5.99792 9.97398 5.99792Z" fill="white"/>
    <defs>
        <linearGradient id="paint0_linear_735_375" x1="20.5781" y1="26.0001" x2="-0.368119" y2="25.8919" gradientUnits="userSpaceOnUse">
            <stop offset="0.120652" stop-color="#0FF082"/>
            <stop offset="0.961475" stop-color="#00AEFC"/>
        </linearGradient>
        <linearGradient id="paint1_linear_735_375" x1="20.5781" y1="26.0001" x2="-0.368119" y2="25.8919" gradientUnits="userSpaceOnUse">
            <stop offset="0.120652" stop-color="#0FF082"/>
            <stop offset="0.961475" stop-color="#00AEFC"/>
        </linearGradient>
    </defs>
</svg>

