<svg width="44" height="48" viewBox="0 0 44 48" fill="none" xmlns="http://www.w3.org/2000/svg">
<path d="M7.91011 26.8372C9.88764 24.9189 15.3258 23.4802 23.236 23.4802C29.1685 23.4802 33.3214 24.2475 36.0899 25.3985C38.2418 26.2932 40.5332 34.4895 42.4531 41.2491C43.1932 43.8546 41.2336 46.5 38.525 46.5H5.65212C2.89272 46.5 0.947016 43.7669 1.85273 41.1604C3.91693 35.2199 6.42483 28.2781 7.91011 26.8372Z" fill="#0D2330"/>
<g opacity="0.4" filter="url(#filter0_f_257_54)">
<path d="M13 25L17.9655 42.973L22.931 44L26.0345 42.4595L31 25H13Z" fill="url(#paint0_linear_257_54)"/>
</g>
<path d="M23 36.3713C21.3394 36.3713 19.991 35.124 20 33.6005C20.0091 32.0631 21.3455 30.8437 23.0152 30.8465C24.6727 30.8493 26 32.077 26 33.6033C26 35.1408 24.6636 36.3741 23 36.3713ZM22.994 35.922C24.3727 35.9276 25.5242 34.8729 25.5182 33.6061C25.5121 32.3393 24.3879 31.3041 23.0091 31.293C21.6425 31.2846 20.5 32.3254 20.4879 33.5922C20.4788 34.8645 21.6091 35.9165 22.994 35.922Z" fill="white"/>
<path d="M23 36.3713C21.3394 36.3713 19.991 35.124 20 33.6005C20.0091 32.0631 21.3455 30.8437 23.0152 30.8465C24.6727 30.8493 26 32.077 26 33.6033C26 35.1408 24.6636 36.3741 23 36.3713ZM22.994 35.922C24.3727 35.9276 25.5242 34.8729 25.5182 33.6061C25.5121 32.3393 24.3879 31.3041 23.0091 31.293C21.6425 31.2846 20.5 32.3254 20.4879 33.5922C20.4788 34.8645 21.6091 35.9165 22.994 35.922Z" fill="url(#paint1_linear_257_54)"/>
<path d="M23.6606 34.8673C23.5285 34.8728 23.4212 34.9773 23.4212 35.1095V35.3262C23.4212 35.4149 23.3493 35.4868 23.2606 35.4868V35.4868C23.1719 35.4868 23.1 35.4149 23.1 35.3262V35.0672C23.1 34.9676 23.0193 34.8868 22.9197 34.8868V34.8868C22.8201 34.8868 22.7394 34.9676 22.7394 35.0672V35.3188C22.7394 35.41 22.6655 35.484 22.5743 35.484V35.484C22.4831 35.484 22.4091 35.41 22.4091 35.3188V35.1784C22.4091 35.0097 22.2723 34.8729 22.1036 34.8729H22.0536C21.8477 34.8729 21.6278 34.6372 21.8093 34.54C21.8299 34.5289 21.8539 34.519 21.8818 34.5102C21.9697 34.4823 22.0546 34.3204 22.0576 34.2172C22.0788 33.8238 22.0758 33.4303 22.0606 33.0369C22.053 32.8369 21.9958 32.7619 21.7837 32.6798C21.702 32.6481 21.6334 32.5776 21.6334 32.49V32.49V32.49C21.6334 32.4072 21.7159 32.3477 21.7986 32.3477H22.0889C22.2607 32.3477 22.4 32.2084 22.4 32.0366V31.8891C22.4 31.7987 22.4733 31.7255 22.5637 31.7255V31.7255C22.654 31.7255 22.7273 31.7987 22.7273 31.8891V32.1593C22.7273 32.2572 22.8067 32.3365 22.9046 32.3365V32.3365C23.0025 32.3365 23.0818 32.2572 23.0818 32.1593V31.8964C23.0818 31.8036 23.1571 31.7283 23.25 31.7283V31.7283C23.3429 31.7283 23.4182 31.8036 23.4182 31.8964V32.0486C23.4182 32.2075 23.5362 32.3334 23.6925 32.3625C23.7199 32.3676 23.7466 32.3736 23.7727 32.3812C24.1818 32.5067 24.394 32.9504 24.2303 33.3494C24.1788 33.475 24.1697 33.5531 24.2758 33.6675C24.497 33.9047 24.5152 34.1865 24.3727 34.4711C24.2333 34.7445 23.9879 34.8701 23.6606 34.8673V34.8673ZM22.7485 34.0902C22.7485 34.2682 22.8928 34.4144 23.0707 34.4173C23.2138 34.4197 23.3549 34.4197 23.494 34.4069C23.6849 34.3902 23.797 34.259 23.7909 34.0805C23.7849 33.9019 23.6727 33.7819 23.4758 33.7707C23.3423 33.7629 23.2078 33.763 23.0708 33.7646C22.8928 33.7667 22.7485 33.9122 22.7485 34.0902V34.0902ZM22.7485 33.1457C22.7485 33.3229 22.8921 33.4712 23.0693 33.4725C23.1526 33.4732 23.2342 33.471 23.3152 33.461C23.5061 33.4415 23.6212 33.3243 23.6182 33.1401C23.6182 32.9671 23.5152 32.8499 23.3303 32.8304C23.2446 32.8215 23.1576 32.8196 23.0694 32.8201C22.8921 32.8211 22.7485 32.9685 22.7485 33.1457V33.1457Z" fill="white"/>
<path d="M23.6606 34.8673C23.5285 34.8728 23.4212 34.9773 23.4212 35.1095V35.3262C23.4212 35.4149 23.3493 35.4868 23.2606 35.4868V35.4868C23.1719 35.4868 23.1 35.4149 23.1 35.3262V35.0672C23.1 34.9676 23.0193 34.8868 22.9197 34.8868V34.8868C22.8201 34.8868 22.7394 34.9676 22.7394 35.0672V35.3188C22.7394 35.41 22.6655 35.484 22.5743 35.484V35.484C22.4831 35.484 22.4091 35.41 22.4091 35.3188V35.1784C22.4091 35.0097 22.2723 34.8729 22.1036 34.8729H22.0536C21.8477 34.8729 21.6278 34.6372 21.8093 34.54C21.8299 34.5289 21.8539 34.519 21.8818 34.5102C21.9697 34.4823 22.0546 34.3204 22.0576 34.2172C22.0788 33.8238 22.0758 33.4303 22.0606 33.0369C22.053 32.8369 21.9958 32.7619 21.7837 32.6798C21.702 32.6481 21.6334 32.5776 21.6334 32.49V32.49V32.49C21.6334 32.4072 21.7159 32.3477 21.7986 32.3477H22.0889C22.2607 32.3477 22.4 32.2084 22.4 32.0366V31.8891C22.4 31.7987 22.4733 31.7255 22.5637 31.7255V31.7255C22.654 31.7255 22.7273 31.7987 22.7273 31.8891V32.1593C22.7273 32.2572 22.8067 32.3365 22.9046 32.3365V32.3365C23.0025 32.3365 23.0818 32.2572 23.0818 32.1593V31.8964C23.0818 31.8036 23.1571 31.7283 23.25 31.7283V31.7283C23.3429 31.7283 23.4182 31.8036 23.4182 31.8964V32.0486C23.4182 32.2075 23.5362 32.3334 23.6925 32.3625C23.7199 32.3676 23.7466 32.3736 23.7727 32.3812C24.1818 32.5067 24.394 32.9504 24.2303 33.3494C24.1788 33.475 24.1697 33.5531 24.2758 33.6675C24.497 33.9047 24.5152 34.1865 24.3727 34.4711C24.2333 34.7445 23.9879 34.8701 23.6606 34.8673V34.8673ZM22.7485 34.0902C22.7485 34.2682 22.8928 34.4144 23.0707 34.4173C23.2138 34.4197 23.3549 34.4197 23.494 34.4069C23.6849 34.3902 23.797 34.259 23.7909 34.0805C23.7849 33.9019 23.6727 33.7819 23.4758 33.7707C23.3423 33.7629 23.2078 33.763 23.0708 33.7646C22.8928 33.7667 22.7485 33.9122 22.7485 34.0902V34.0902ZM22.7485 33.1457C22.7485 33.3229 22.8921 33.4712 23.0693 33.4725C23.1526 33.4732 23.2342 33.471 23.3152 33.461C23.5061 33.4415 23.6212 33.3243 23.6182 33.1401C23.6182 32.9671 23.5152 32.8499 23.3303 32.8304C23.2446 32.8215 23.1576 32.8196 23.0694 32.8201C22.8921 32.8211 22.7485 32.9685 22.7485 33.1457V33.1457Z" fill="url(#paint2_linear_257_54)"/>
<path d="M13 10.1287L17 1.84158L20 0.460396L25.5 0L27.5 1.84158L31.5 8.74752L34 15.6535L35.5 19.797L33.5 24.8614L27 27.6238H17.5L11.5 24.8614L9.5 20.2574V17.0347L13 10.1287Z" fill="#0D2330"/>
<path d="M15.9149 42.5034L16.6809 45.3245L17.0638 46.3825H27.7872L29.3191 45.6772L30.4681 44.6192L31.617 42.1507L32 39.6822V38.9769L31.617 38.6243V38.2717V37.2137L30.8511 36.8611V36.5084V35.8031L30.4681 35.4505H29.7021L28.9362 36.5084L28.1702 38.6243L27.7872 38.2717L26.6383 38.6243L25.1064 40.0349L22.8085 43.2087H22.0426L20.5106 42.5034L18.2128 40.7402L17.0638 38.9769L15.5319 37.2137L14.383 36.8611L14 37.5664L14.5066 38.9769L14.766 40.0349L15.1489 41.0928L15.9149 42.5034Z" fill="white"/>
<path d="M15.9149 42.5034L16.6809 45.3245L17.0638 46.3825H27.7872L29.3191 45.6772L30.4681 44.6192L31.617 42.1507L32 39.6822V38.9769L31.617 38.6243V38.2717V37.2137L30.8511 36.8611V36.5084V35.8031L30.4681 35.4505H29.7021L28.9362 36.5084L28.1702 38.6243L27.7872 38.2717L26.6383 38.6243L25.1064 40.0349L22.8085 43.2087H22.0426L20.5106 42.5034L18.2128 40.7402L17.0638 38.9769L15.5319 37.2137L14.383 36.8611L14 37.5664L14.5066 38.9769L14.766 40.0349L15.1489 41.0928L15.9149 42.5034Z" fill="url(#paint3_linear_257_54)"/>
<path d="M29 36L27.0215 41.4455L23.5747 46.3825" stroke="#0B1C26" stroke-width="0.3"/>
<path d="M31 36L30.085 40.7402L28.5531 43.5613L26.6382 46.3825" stroke="#0B1C26" stroke-width="0.3"/>
<path d="M32 37.5L30.4681 42.1507L28.9362 44.9719L27.4043 46.3825" stroke="#0B1C26" stroke-width="0.3"/>
<mask id="mask0_257_54" style="mask-type:alpha" maskUnits="userSpaceOnUse" x="9" y="0" width="27" height="28">
<path d="M13 10.1287L17 1.84158L20 0.460396L25.5 0L27.5 1.84158L31.5 8.74752L34 15.6535L35.5 19.797L33.5 24.8614L27 27.6238H17.5L11.5 24.8614L9.5 20.2574V17.0347L13 10.1287Z" fill="#152B3A"/>
</mask>
<g mask="url(#mask0_257_54)">
<path d="M15 11.5099L9 17.4951L7 21.6386L10 28.0842L27.5 30.3861L37.5 22.5594L35 15.6535L31 11.9703L26 10.5891H19.5L15 11.5099Z" fill="url(#paint4_linear_257_54)"/>
</g>
<defs>
<filter id="filter0_f_257_54" x="9" y="21" width="26" height="27" filterUnits="userSpaceOnUse" color-interpolation-filters="sRGB">
<feFlood flood-opacity="0" result="BackgroundImageFix"/>
<feBlend mode="normal" in="SourceGraphic" in2="BackgroundImageFix" result="shape"/>
<feGaussianBlur stdDeviation="2" result="effect1_foregroundBlur_257_54"/>
</filter>
<linearGradient id="paint0_linear_257_54" x1="22" y1="25" x2="22" y2="44" gradientUnits="userSpaceOnUse">
<stop stop-color="#0D2330" stop-opacity="0"/>
<stop offset="1" stop-color="#0EEB8B"/>
</linearGradient>
<linearGradient id="paint1_linear_257_54" x1="26.1734" y1="36.3713" x2="19.8897" y2="36.3255" gradientUnits="userSpaceOnUse">
<stop offset="0.120652" stop-color="#0FF082"/>
<stop offset="0.961475" stop-color="#00AEFC"/>
</linearGradient>
<linearGradient id="paint2_linear_257_54" x1="26.1734" y1="36.3713" x2="19.8897" y2="36.3255" gradientUnits="userSpaceOnUse">
<stop offset="0.120652" stop-color="#0FF082"/>
<stop offset="0.961475" stop-color="#00AEFC"/>
</linearGradient>
<linearGradient id="paint3_linear_257_54" x1="32.5203" y1="46.3825" x2="13.6705" y2="46.1741" gradientUnits="userSpaceOnUse">
<stop offset="0.120652" stop-color="#0FF082"/>
<stop offset="0.961475" stop-color="#00AEFC"/>
</linearGradient>
<linearGradient id="paint4_linear_257_54" x1="22.25" y1="10.5891" x2="22.25" y2="30.3861" gradientUnits="userSpaceOnUse">
<stop/>
<stop offset="1" stop-color="#010404" stop-opacity="0"/>
</linearGradient>
</defs>
</svg>
