<svg width="45" height="44" viewBox="0 0 45 44" fill="none" xmlns="http://www.w3.org/2000/svg">
<rect x="0.799805" width="44" height="44" rx="22" fill="url(#paint0_linear_1360_667)"/>
<path d="M31.5355 29.0408L28.8151 26.1325C29.9192 24.8056 30.5234 23.1507 30.5234 21.4101C30.5234 17.325 27.1957 14 23.1044 14C19.0161 14 15.6885 17.325 15.6885 21.4101C15.6885 25.4951 19.0161 28.8201 23.1044 28.8201C24.1748 28.8201 25.2084 28.5964 26.1744 28.1551C26.4627 28.0234 26.5885 27.6863 26.4566 27.4013C26.3247 27.1132 25.9874 26.9875 25.7021 27.1193C24.8832 27.4901 24.0092 27.6801 23.1044 27.6801C19.6449 27.6801 16.8294 24.8669 16.8294 21.4101C16.8294 17.9533 19.6449 15.14 23.1044 15.14C26.5639 15.14 29.3794 17.9533 29.3794 21.4101C29.3794 23.0373 28.7568 24.5788 27.6313 25.7525C27.4135 25.9793 27.4196 26.3409 27.6466 26.5585C27.665 26.5738 27.6865 26.58 27.7049 26.5953C27.7202 26.6167 27.7294 26.6443 27.7478 26.6658L30.6982 29.8192C30.8086 29.9387 30.962 30 31.1153 30C31.2564 30 31.3944 29.9479 31.5048 29.8468C31.7379 29.6323 31.7502 29.2706 31.5355 29.0408L31.5355 29.0408Z" fill="#23262F"/>
<defs>
<linearGradient id="paint0_linear_1360_667" x1="46.0717" y1="44.0002" x2="-0.00920848" y2="43.6908" gradientUnits="userSpaceOnUse">
<stop offset="0.120652" stop-color="#0FF082"/>
<stop offset="0.961475" stop-color="#00AEFC"/>
</linearGradient>
</defs>
</svg>
