<svg width="16" height="16" viewBox="0 0 16 16" fill="none" xmlns="http://www.w3.org/2000/svg">
    <path d="M15.847 15.0408L13.1266 12.1325C14.2307 10.8056 14.8349 9.15073 14.8349 7.41007C14.8349 3.32503 11.5073 0 7.41593 0C3.32766 0 0 3.32503 0 7.41007C0 11.4951 3.32766 14.8201 7.41593 14.8201C8.4863 14.8201 9.51987 14.5964 10.486 14.1551C10.7743 14.0234 10.9 13.6863 10.7681 13.4013C10.6362 13.1132 10.2989 12.9875 10.0136 13.1193C9.19477 13.4901 8.32068 13.6801 7.41592 13.6801C3.95638 13.6801 1.1409 10.8669 1.1409 7.41007C1.1409 3.95326 3.95638 1.14 7.41592 1.14C10.8755 1.14 13.6909 3.95326 13.6909 7.41007C13.6909 9.03734 13.0683 10.5788 11.9428 11.7525C11.725 11.9793 11.7312 12.3409 11.9581 12.5585C11.9765 12.5738 11.998 12.58 12.0164 12.5953C12.0317 12.6167 12.0409 12.6443 12.0593 12.6658L15.0098 15.8192C15.1202 15.9387 15.2735 16 15.4269 16C15.5679 16 15.706 15.9479 15.8164 15.8468C16.0495 15.6323 16.0617 15.2706 15.847 15.0408L15.847 15.0408Z" fill="#00AEFC"/>
</svg>

